<?xml version="1.0" encoding="UTF-8"?>
<svg id="Layer_2" data-name="Layer 2" xmlns="http://www.w3.org/2000/svg" viewBox="0 0 20.92 19.44">
  <defs>
    <style>
      .cls-1 {
        fill: #fff;
      }
    </style>
  </defs>
  <g id="Layer_1-2" data-name="Layer 1">
    <g>
      <polygon class="cls-1" points="2.93 1.26 0 0 0 6.79 2.93 8.1 2.93 1.26"/>
      <path class="cls-1" d="M16.4,16.1c-.62,.52-1.49,.46-1.45,.46H2.93v-6.46l-2.93-1.31v10.65H15.93s2.02-.43,3.19-2.13l-2.72-1.21Z"/>
      <path class="cls-1" d="M20.92,12.59c0-4.02-2.87-5.67-7.81-5.67-.88,0-1.85-.53-1.85-1.85s1.25-2.21,1.25-2.21h4.92l1.75-2.87h-6.67s-4.11,.47-4.11,5.12,4.21,5.02,4.21,5.02h3.34s2.06,.29,2.06,2.44c0,.76-.27,1.22-.62,1.51l2.72,1.21c.47-.68,.8-1.57,.8-2.72Z"/>
    </g>
  </g>
</svg>